<?xml version="1.0" encoding="utf-8"?>
<!-- Generator: Adobe Illustrator 13.0.0, SVG Export Plug-In . SVG Version: 6.00 Build 14948)  -->
<!DOCTYPE svg PUBLIC "-//W3C//DTD SVG 1.1//EN" "http://www.w3.org/Graphics/SVG/1.1/DTD/svg11.dtd">
<svg version="1.1" id="Layer_1" xmlns="http://www.w3.org/2000/svg" xmlns:xlink="http://www.w3.org/1999/xlink" x="0px" y="0px"
	 width="3146.268px" height="974.551px" viewBox="0 0 3146.268 974.551" enable-background="new 0 0 3146.268 974.551"
	 xml:space="preserve">
<g>
	<path fill="#E63F26" d="M1531.919,53.215c0.129-16.244,5.16-29.988,16.215-41.431c5.057-5.235,11.195-8.208,18.274-8.798
		c21.068-1.759,42.139-3.844,63.33-2.617c9.291,0.538,18.338,2.358,27.135,5.427c8.342,2.909,14.65,8.24,18.863,15.959
		c8.248,15.11,9.744,30.948,4.299,47.252c-4.781,14.321-11.475,27.847-18.701,41.052c-8.021,14.657-16.316,29.18-25.023,43.438
		c-6.566,10.752-19.896,14.603-31.598,9.767c-13.115-5.42-24.363-13.624-33.768-24.187c-17.558-19.725-29.806-42.399-36.684-67.912
		c-0.967-3.585-1.46-7.312-1.959-11.003C1531.97,57.705,1532.017,55.197,1531.919,53.215 M1564.732,72.893
		c-1.594,1.577-3.127,2.964-4.513,4.485c-9.837,10.79-9.978,24.195-0.417,35.214c4.819,5.556,10.854,9.41,17.565,12.173
		c15.969,6.575,32.428,7.577,49.205,3.81c9.992-2.243,19.168-6.251,26.809-13.269c12.572-11.547,12.857-27.356,0.732-39.385
		c-1.266-1.258-2.6-2.45-3.938-3.708c5.73-10.531,7.357-21.535,3.898-32.935c-3.914-12.896-11.857-22.073-25.482-25.22
		c-7.451-1.721-14.555-0.281-21.234,3.333c-0.709-0.331-1.32-0.631-1.943-0.906c-12.541-5.536-24.102-3.879-34.213,5.319
		c-9.805,8.919-13.129,20.444-12.149,33.415C1559.528,61.524,1561.735,67.292,1564.732,72.893"/>
	<path fill="#ED1C24" d="M1528.409,22.711c-4.652,10.449-6.725,20.936-6.415,31.889c0.303,10.723,2.619,21.066,6.24,31.509
		c-4.937,2.165-9.084,0.962-12.949-1.789c-3.709-2.639-6.235-6.315-7.924-10.457c-5.369-13.175-5.383-26.391,0.284-39.487
		c1.718-3.971,4.188-7.491,7.822-10.018C1519.318,21.682,1523.441,20.912,1528.409,22.711"/>
	<path fill="#E63F26" d="M1688.363,22.711c4.654,10.449,6.725,20.936,6.416,31.889c-0.303,10.723-2.619,21.066-6.242,31.509
		c4.938,2.165,9.084,0.962,12.951-1.789c3.709-2.639,6.234-6.315,7.924-10.457c5.369-13.175,5.381-26.391-0.285-39.487
		c-1.719-3.971-4.188-7.491-7.822-10.018C1697.453,21.682,1693.33,20.912,1688.363,22.711"/>
	<path fill="#E63F26" d="M1585.139,40.016c1.016,0.205,2.818,0.38,4.49,0.94c5.303,1.777,8.58,6.05,8.6,10.959
		c0.02,4.922-3.637,9.602-8.902,11.247c-3.229,1.008-6.488,1.131-9.785,0.143c-5.896-1.765-9.719-6.683-9.328-12.13
		c0.383-5.339,4.977-9.985,10.844-10.904C1582.143,40.101,1583.26,40.125,1585.139,40.016"/>
	<path fill="#E63F26" d="M1628.406,41.063c0.199,0.015,1.035,0.008,1.846,0.148c7.262,1.257,12.279,7.34,11.18,13.521
		c-1.211,6.813-8.99,11.526-16.67,10.099c-6.998-1.3-11.791-6.699-11.275-12.703C1614.031,45.778,1620.229,40.977,1628.406,41.063"
		/>
	<path fill="#E63F26" d="M1600.586,83.537c0.406,0.082,1.127,0.152,1.797,0.376c2.121,0.711,3.432,2.42,3.439,4.384
		c0.008,1.969-1.455,3.84-3.561,4.498c-1.291,0.404-2.596,0.453-3.916,0.058c-2.357-0.706-3.887-2.674-3.729-4.852
		c0.152-2.136,1.988-3.994,4.336-4.362C1599.389,83.571,1599.834,83.581,1600.586,83.537"/>
	<path fill="#E63F26" d="M1611.893,83.956c0.08,0.006,0.414,0.003,0.738,0.059c2.906,0.503,4.912,2.936,4.473,5.408
		c-0.484,2.726-3.596,4.611-6.668,4.04c-2.799-0.52-4.717-2.679-4.51-5.081C1606.143,85.842,1608.623,83.921,1611.893,83.956"/>
	<path fill="#E63F26" d="M1917.141,926.564c-1.01-6.57-3.57-12.52-9.01-16.781c-8.951-7.029-20.221-3.738-24.051,6.871
		c-1.221,3.369-2.49,6.789-4.33,9.82c-3.1,5.109-9.15,7.43-14.939,5.949c-7.371-1.891-11.961-6.84-13.75-13.84
		c-1.43-5.59-2.27-11.41-2.59-17.17l-8.15-432.77c25.25-37.68,38.959-83.7,38.959-131.79c0-55.72-18.398-108.65-51.818-149.05
		c-17.291-20.9-37.721-37.47-60.74-49.24c-24.92-12.74-51.531-19.2-79.09-19.2c-6.91,0-13.762,0.4-20.541,1.21
		c-8.42,15.26-17.1,30.39-26.18,45.26c-7.619,12.47-23.08,16.94-36.66,11.33c-10.439-4.32-19.869-10.16-28.279-17.36
		c-10.121,8.21-19.541,17.57-28.17,28c-33.41,40.4-51.811,93.33-51.811,149.05c0,55.71,18.4,108.65,51.811,149.05
		c12.68,15.33,27.049,28.32,42.889,38.801c-10.84,9.639-21.609,16.75-21.609,16.75v12.299h104.24c4.74,0.391,9.51,0.59,14.311,0.59
		c27.559,0,54.17-6.459,79.09-19.199c6.17-3.16,12.148-6.66,17.939-10.5c0.74,32.41,7.801,314.1,11.85,343.311
		c2.32,16.709,5.25,33.318,9.98,49.539c3.279,11.301,7.18,22.381,13.85,32.23c3.461,5.109,15.5,13.629,21.27,16.189
		c6.941,3.08,12.051,4.811,20.9,7.029c1.9,0.801,3.91,0.4,5.93,0.82C1895.711,979.375,1921.369,954.064,1917.141,926.564
		 M1765.98,452.504c36.35-190.34-208.46-157.81-107.5,29.66c-54.221-15.84-94.49-74.89-94.49-145.31
		c0-82.56,55.35-149.49,123.641-149.49c68.289,0,123.648,66.93,123.648,149.49C1811.279,383.464,1793.641,425.094,1765.98,452.504"
		/>
	<path d="M607.989,270.029v274.314h-74.65V297.011c0-14.98-2.698-27.727-8.094-38.224c-5.396-10.484-12.451-19.028-21.136-25.633
		c-8.699-6.591-18.747-11.383-30.129-14.39c-11.397-2.993-23.089-4.497-35.077-4.497c-11.397,0-22.935,1.504-34.626,4.497
		c-11.692,3.007-22.189,7.799-31.479,14.39c-9.303,6.605-16.948,15.149-22.935,25.633c-6.001,10.498-8.994,23.244-8.994,38.224
		v247.333H266.22V297.011c0-14.39-2.698-26.673-8.095-36.875c-5.396-10.188-12.296-18.733-20.686-25.633
		c-8.403-6.886-18.142-11.987-29.23-15.29c-11.102-3.289-22.344-4.947-33.727-4.947c-10.793,0-22.035,1.504-33.728,4.497
		c-11.692,3.007-22.485,7.954-32.378,14.84c-9.894,6.9-17.988,15.599-24.284,26.083c-6.296,10.498-9.443,22.935-9.443,37.325
		v247.333H0V156.706h74.65v24.284c21.585-14.98,40.922-25.633,58.011-31.929c17.088-6.295,34.626-9.443,52.614-9.443
		c21.585,0,42.412,5.396,62.508,16.189c20.082,10.792,38.519,26.083,55.312,45.869c22.78-20.981,46.614-36.566,71.502-46.769
		c24.874-10.188,50.211-15.29,75.999-15.29c21.585,0,41.962,2.698,61.159,8.094c19.182,5.396,35.976,13.491,50.366,24.284
		c14.39,10.793,25.633,24.284,33.727,40.473C603.942,228.657,607.989,247.854,607.989,270.029z"/>
	<path d="M992.016,156.706v387.638h-74.649v-27.881c-21.585,13.801-41.372,23.525-59.36,29.23
		c-17.988,5.691-35.681,8.543-53.064,8.543c-23.384,0-44.52-3.906-63.407-11.691c-18.887-7.799-35.076-18.732-48.567-32.828
		c-13.491-14.08-23.988-30.424-31.479-49.016c-7.504-18.578-11.242-38.674-11.242-60.26V156.706h74.649v225.748
		c0,13.195,2.249,25.941,6.746,38.224c4.497,12.297,10.792,23.09,18.887,32.379c8.094,9.303,17.678,16.793,28.78,22.485
		c11.088,5.705,23.229,8.543,36.425,8.543c12.592,0,25.028-2.697,37.325-8.094c12.283-5.396,23.23-12.591,32.828-21.585
		c9.584-8.994,17.229-19.632,22.935-31.929c5.691-12.282,8.544-25.633,8.544-40.022V156.706H992.016z"/>
	<path d="M1200.669,147.712c17.383,0,33.727,1.954,49.017,5.846c15.29,3.907,30.72,10.048,46.318,18.438l-32.378,66.555
		c-1.208-0.59-4.806-2.249-10.793-4.947c-6-2.698-13.94-5.537-23.833-8.544c-9.894-2.994-18.747-4.497-26.532-4.497
		c-15.599,0-29.23,2.853-40.922,8.544c-11.692,5.706-21.291,13.351-28.781,22.935c-7.504,9.598-13.041,20.686-16.639,33.277
		c-3.598,12.592-5.396,26.083-5.396,40.473v218.552h-74.649V156.706h74.649v35.976c18.578-15.584,34.318-26.982,47.218-34.177
		C1170.834,151.31,1185.07,147.712,1200.669,147.712z"/>
	<rect x="1366.149" y="156.706" width="74.649" height="387.638"/>
	<path d="M2271.168,156.706v387.638h-74.648v-27.881c-21.586,13.801-41.373,23.525-59.361,29.23
		c-17.986,5.691-35.68,8.543-53.064,8.543c-23.383,0-44.52-3.906-63.406-11.691c-18.887-7.799-35.076-18.732-48.566-32.828
		c-13.492-14.08-23.988-30.424-31.479-49.016c-7.506-18.578-11.244-38.674-11.244-60.26V156.706h74.65v225.748
		c0,13.195,2.248,25.941,6.746,38.224c4.496,12.297,10.791,23.09,18.887,32.379c8.094,9.303,17.678,16.793,28.781,22.485
		c11.086,5.705,23.229,8.543,36.424,8.543c12.592,0,25.029-2.697,37.326-8.094c12.281-5.396,23.229-12.591,32.826-21.585
		c9.586-8.994,17.23-19.632,22.936-31.929c5.691-12.282,8.545-25.633,8.545-40.022V156.706H2271.168z"/>
	<path d="M2522.992,137.819c30.58,0,57.561,5.706,80.945,17.088c23.385,11.397,43.016,26.841,58.91,46.319
		c15.879,19.491,28.176,42.271,36.875,68.354c8.686,26.083,13.631,54.118,14.84,84.093h-313.889
		c5.396,41.976,19.787,73.905,43.172,95.786c23.385,21.895,52.754,32.827,88.141,32.827c28.176,0,53.514-5.396,75.998-16.188
		c22.484-10.793,47.809-26.673,75.998-47.668l18.889,78.247c-25.184,17.398-53.373,31.633-84.543,42.721
		c-31.184,11.088-61.158,16.639-89.939,16.639c-33.586,0-63.408-5.256-89.49-15.738c-26.082-10.484-48.117-25.324-66.105-44.52
		c-17.986-19.184-31.787-41.822-41.371-67.905c-9.598-26.082-14.391-55.003-14.391-86.791c0-29.975,4.793-57.407,14.391-82.294
		c9.584-24.874,23.385-46.319,41.371-64.307c17.988-17.988,39.715-31.928,65.207-41.822
		C2463.479,142.766,2491.809,137.819,2522.992,137.819z M2408.77,288.917h217.652c-24.592-53.963-59.963-80.945-106.129-80.945
		c-23.988,0-45.277,6.451-63.855,19.337c-18.592,12.901-34.486,33.728-47.668,62.508V288.917z"/>
	<path d="M2954.695,137.819c30.58,0,57.562,5.706,80.945,17.088c23.385,11.397,43.018,26.841,58.91,46.319
		c15.881,19.491,28.178,42.271,36.875,68.354c8.686,26.083,13.633,54.118,14.842,84.093h-313.889
		c5.396,41.976,19.787,73.905,43.17,95.786c23.385,21.895,52.756,32.827,88.141,32.827c28.178,0,53.514-5.396,76-16.188
		c22.484-10.793,47.807-26.673,75.998-47.668l18.887,78.247c-25.184,17.398-53.373,31.633-84.543,42.721
		c-31.184,11.088-61.158,16.639-89.939,16.639c-33.586,0-63.406-5.256-89.488-15.738c-26.082-10.484-48.117-25.324-66.105-44.52
		c-17.988-19.184-31.789-41.822-41.373-67.905c-9.598-26.082-14.389-55.003-14.389-86.791c0-29.975,4.791-57.407,14.389-82.294
		c9.584-24.874,23.385-46.319,41.373-64.307s39.713-31.928,65.205-41.822C2895.182,142.766,2923.512,137.819,2954.695,137.819z
		 M2840.473,288.917h217.654c-24.594-53.963-59.965-80.945-106.129-80.945c-23.988,0-45.279,6.451-63.857,19.337
		c-18.592,12.901-34.486,33.728-47.668,62.508V288.917z"/>
</g>
</svg>
